<svg width="25" height="24" viewBox="0 0 25 24" fill="none" xmlns="http://www.w3.org/2000/svg">
<g id="SVG">
<g id="g10">
<g id="g12">
<path id="path14" d="M10.7015 17.6361C6.91993 17.6361 3.84391 14.5617 3.84391 10.7825C3.84391 7.00089 6.91993 3.9249 10.7015 3.9249C14.4831 3.9249 17.5599 7.00089 17.5599 10.7825C17.5599 14.5617 14.4831 17.6361 10.7015 17.6361ZM22.4711 21.1785L17.5815 16.2889C18.8279 14.7313 19.5135 12.7801 19.5135 10.7825C19.5135 5.9241 15.5607 1.97131 10.7015 1.97131C5.84312 1.97131 1.89036 5.9241 1.89036 10.7825C1.89036 15.6417 5.84312 19.5945 10.7015 19.5945C12.6999 19.5945 14.6495 18.9105 16.2031 17.6665L21.0935 22.5521C21.2775 22.7361 21.5223 22.8376 21.7823 22.8376C22.0415 22.8376 22.2863 22.7361 22.4703 22.5521C22.6551 22.3696 22.7567 22.1256 22.7567 21.8649C22.7567 21.6041 22.6551 21.3609 22.4711 21.1785Z" fill="black"/>
</g>
</g>
</g>
</svg>
